<?xml version="1.0" encoding="utf-8" standalone="no"?>
<!DOCTYPE svg PUBLIC "-//W3C//DTD SVG 1.1//EN"
  "http://www.w3.org/Graphics/SVG/1.1/DTD/svg11.dtd">
<svg xmlns:xlink="http://www.w3.org/1999/xlink" width="756pt" height="345.6pt" viewBox="0 0 756 345.6" xmlns="http://www.w3.org/2000/svg" version="1.1">
 <metadata>
  <rdf:RDF xmlns:dc="http://purl.org/dc/elements/1.1/" xmlns:cc="http://creativecommons.org/ns#" xmlns:rdf="http://www.w3.org/1999/02/22-rdf-syntax-ns#">
   <cc:Work>
    <dc:type rdf:resource="http://purl.org/dc/dcmitype/StillImage"/>
    <dc:date>2026-02-28T00:26:23.106555</dc:date>
    <dc:format>image/svg+xml</dc:format>
    <dc:creator>
     <cc:Agent>
      <dc:title>Matplotlib v3.10.8, https://matplotlib.org/</dc:title>
     </cc:Agent>
    </dc:creator>
   </cc:Work>
  </rdf:RDF>
 </metadata>
 <defs>
  <style type="text/css">*{stroke-linejoin: round; stroke-linecap: butt}</style>
 </defs>
 <g id="figure_1">
  <g id="patch_1">
   <path d="M 0 345.6 
L 756 345.6 
L 756 0 
L 0 0 
z
" style="fill: #ffffff"/>
  </g>
  <g id="axes_1">
   <g id="patch_2">
    <path d="M 42.33 320.72 
L 745.2 320.72 
L 745.2 26.16 
L 42.33 26.16 
z
" style="fill: #ffffff"/>
   </g>
   <g id="matplotlib.axis_1">
    <g id="text_1">
     <!-- Run date -->
     <g style="fill: #262626" transform="translate(373.473594 331.966875) scale(0.1 -0.1)">
      <defs>
       <path id="LiberationSans-52" d="M 3638 0 
L 2494 1828 
L 1122 1828 
L 1122 0 
L 525 0 
L 525 4403 
L 2597 4403 
Q 3341 4403 3745 4070 
Q 4150 3738 4150 3144 
Q 4150 2653 3864 2318 
Q 3578 1984 3075 1897 
L 4325 0 
L 3638 0 
z
M 3550 3138 
Q 3550 3522 3289 3723 
Q 3028 3925 2538 3925 
L 1122 3925 
L 1122 2300 
L 2563 2300 
Q 3034 2300 3292 2520 
Q 3550 2741 3550 3138 
z
" transform="scale(0.015625)"/>
       <path id="LiberationSans-75" d="M 981 3381 
L 981 1238 
Q 981 903 1047 718 
Q 1113 534 1256 453 
Q 1400 372 1678 372 
Q 2084 372 2318 650 
Q 2553 928 2553 1422 
L 2553 3381 
L 3116 3381 
L 3116 722 
Q 3116 131 3134 0 
L 2603 0 
Q 2600 16 2597 84 
Q 2594 153 2589 242 
Q 2584 331 2578 578 
L 2569 578 
Q 2375 228 2120 82 
Q 1866 -63 1488 -63 
Q 931 -63 673 214 
Q 416 491 416 1128 
L 416 3381 
L 981 3381 
z
" transform="scale(0.015625)"/>
       <path id="LiberationSans-6e" d="M 2578 0 
L 2578 2144 
Q 2578 2478 2512 2662 
Q 2447 2847 2303 2928 
Q 2159 3009 1881 3009 
Q 1475 3009 1240 2731 
Q 1006 2453 1006 1959 
L 1006 0 
L 444 0 
L 444 2659 
Q 444 3250 425 3381 
L 956 3381 
Q 959 3366 962 3297 
Q 966 3228 970 3139 
Q 975 3050 981 2803 
L 991 2803 
Q 1184 3153 1439 3298 
Q 1694 3444 2072 3444 
Q 2628 3444 2886 3167 
Q 3144 2891 3144 2253 
L 3144 0 
L 2578 0 
z
" transform="scale(0.015625)"/>
       <path id="LiberationSans-20" transform="scale(0.015625)"/>
       <path id="LiberationSans-64" d="M 2566 544 
Q 2409 219 2151 78 
Q 1894 -63 1513 -63 
Q 872 -63 570 368 
Q 269 800 269 1675 
Q 269 3444 1513 3444 
Q 1897 3444 2153 3303 
Q 2409 3163 2566 2856 
L 2572 2856 
L 2566 3234 
L 2566 4638 
L 3128 4638 
L 3128 697 
Q 3128 169 3147 0 
L 2609 0 
Q 2600 50 2589 231 
Q 2578 413 2578 544 
L 2566 544 
z
M 859 1694 
Q 859 984 1046 678 
Q 1234 372 1656 372 
Q 2134 372 2350 703 
Q 2566 1034 2566 1731 
Q 2566 2403 2350 2715 
Q 2134 3028 1663 3028 
Q 1238 3028 1048 2714 
Q 859 2400 859 1694 
z
" transform="scale(0.015625)"/>
       <path id="LiberationSans-61" d="M 1294 -63 
Q 784 -63 528 206 
Q 272 475 272 944 
Q 272 1469 617 1750 
Q 963 2031 1731 2050 
L 2491 2063 
L 2491 2247 
Q 2491 2659 2316 2837 
Q 2141 3016 1766 3016 
Q 1388 3016 1216 2887 
Q 1044 2759 1009 2478 
L 422 2531 
Q 566 3444 1778 3444 
Q 2416 3444 2737 3151 
Q 3059 2859 3059 2306 
L 3059 850 
Q 3059 600 3125 473 
Q 3191 347 3375 347 
Q 3456 347 3559 369 
L 3559 19 
Q 3347 -31 3125 -31 
Q 2813 -31 2670 133 
Q 2528 297 2509 647 
L 2491 647 
Q 2275 259 1989 98 
Q 1703 -63 1294 -63 
z
M 1422 359 
Q 1731 359 1972 500 
Q 2213 641 2352 886 
Q 2491 1131 2491 1391 
L 2491 1669 
L 1875 1656 
Q 1478 1650 1273 1575 
Q 1069 1500 959 1344 
Q 850 1188 850 934 
Q 850 659 998 509 
Q 1147 359 1422 359 
z
" transform="scale(0.015625)"/>
       <path id="LiberationSans-74" d="M 1731 25 
Q 1453 -50 1163 -50 
Q 488 -50 488 716 
L 488 2972 
L 97 2972 
L 97 3381 
L 509 3381 
L 675 4138 
L 1050 4138 
L 1050 3381 
L 1675 3381 
L 1675 2972 
L 1050 2972 
L 1050 838 
Q 1050 594 1129 495 
Q 1209 397 1406 397 
Q 1519 397 1731 441 
L 1731 25 
z
" transform="scale(0.015625)"/>
       <path id="LiberationSans-65" d="M 863 1572 
Q 863 991 1103 675 
Q 1344 359 1806 359 
Q 2172 359 2392 506 
Q 2613 653 2691 878 
L 3184 738 
Q 2881 -63 1806 -63 
Q 1056 -63 664 384 
Q 272 831 272 1713 
Q 272 2550 664 2997 
Q 1056 3444 1784 3444 
Q 3275 3444 3275 1647 
L 3275 1572 
L 863 1572 
z
M 2694 2003 
Q 2647 2538 2422 2783 
Q 2197 3028 1775 3028 
Q 1366 3028 1127 2754 
Q 888 2481 869 2003 
L 2694 2003 
z
" transform="scale(0.015625)"/>
      </defs>
      <use xlink:href="#LiberationSans-52"/>
      <use xlink:href="#LiberationSans-75" transform="translate(72.216797 0)"/>
      <use xlink:href="#LiberationSans-6e" transform="translate(127.832031 0)"/>
      <use xlink:href="#LiberationSans-20" transform="translate(183.447266 0)"/>
      <use xlink:href="#LiberationSans-64" transform="translate(211.230469 0)"/>
      <use xlink:href="#LiberationSans-61" transform="translate(266.845703 0)"/>
      <use xlink:href="#LiberationSans-74" transform="translate(322.460938 0)"/>
      <use xlink:href="#LiberationSans-65" transform="translate(350.244141 0)"/>
     </g>
    </g>
   </g>
   <g id="matplotlib.axis_2">
    <g id="ytick_1">
     <g id="line2d_1">
      <path d="M 42.33 320.72 
L 745.2 320.72 
" clip-path="url(#p13f7ac9177)" style="fill: none; stroke: #cccccc; stroke-width: 0.8; stroke-linecap: round"/>
     </g>
     <g id="line2d_2"/>
     <g id="text_2">
      <!-- 0.0 -->
      <g style="fill: #262626" transform="translate(24.93 324.343437) scale(0.1 -0.1)">
       <defs>
        <path id="LiberationSans-30" d="M 3309 2203 
Q 3309 1100 2920 518 
Q 2531 -63 1772 -63 
Q 1013 -63 631 515 
Q 250 1094 250 2203 
Q 250 3338 620 3903 
Q 991 4469 1791 4469 
Q 2569 4469 2939 3897 
Q 3309 3325 3309 2203 
z
M 2738 2203 
Q 2738 3156 2517 3584 
Q 2297 4013 1791 4013 
Q 1272 4013 1045 3591 
Q 819 3169 819 2203 
Q 819 1266 1048 831 
Q 1278 397 1778 397 
Q 2275 397 2506 840 
Q 2738 1284 2738 2203 
z
" transform="scale(0.015625)"/>
        <path id="LiberationSans-2e" d="M 584 0 
L 584 684 
L 1194 684 
L 1194 0 
L 584 0 
z
" transform="scale(0.015625)"/>
       </defs>
       <use xlink:href="#LiberationSans-30"/>
       <use xlink:href="#LiberationSans-2e" transform="translate(55.615234 0)"/>
       <use xlink:href="#LiberationSans-30" transform="translate(83.398438 0)"/>
      </g>
     </g>
    </g>
    <g id="ytick_2">
     <g id="line2d_3">
      <path d="M 42.33 261.808 
L 745.2 261.808 
" clip-path="url(#p13f7ac9177)" style="fill: none; stroke: #cccccc; stroke-width: 0.8; stroke-linecap: round"/>
     </g>
     <g id="line2d_4"/>
     <g id="text_3">
      <!-- 0.2 -->
      <g style="fill: #262626" transform="translate(24.93 265.431437) scale(0.1 -0.1)">
       <defs>
        <path id="LiberationSans-32" d="M 322 0 
L 322 397 
Q 481 763 711 1042 
Q 941 1322 1194 1548 
Q 1447 1775 1695 1969 
Q 1944 2163 2144 2356 
Q 2344 2550 2467 2762 
Q 2591 2975 2591 3244 
Q 2591 3606 2378 3806 
Q 2166 4006 1788 4006 
Q 1428 4006 1195 3811 
Q 963 3616 922 3263 
L 347 3316 
Q 409 3844 795 4156 
Q 1181 4469 1788 4469 
Q 2453 4469 2811 4155 
Q 3169 3841 3169 3263 
Q 3169 3006 3051 2753 
Q 2934 2500 2703 2247 
Q 2472 1994 1819 1463 
Q 1459 1169 1246 933 
Q 1034 697 941 478 
L 3238 478 
L 3238 0 
L 322 0 
z
" transform="scale(0.015625)"/>
       </defs>
       <use xlink:href="#LiberationSans-30"/>
       <use xlink:href="#LiberationSans-2e" transform="translate(55.615234 0)"/>
       <use xlink:href="#LiberationSans-32" transform="translate(83.398438 0)"/>
      </g>
     </g>
    </g>
    <g id="ytick_3">
     <g id="line2d_5">
      <path d="M 42.33 202.896 
L 745.2 202.896 
" clip-path="url(#p13f7ac9177)" style="fill: none; stroke: #cccccc; stroke-width: 0.8; stroke-linecap: round"/>
     </g>
     <g id="line2d_6"/>
     <g id="text_4">
      <!-- 0.4 -->
      <g style="fill: #262626" transform="translate(24.93 206.519437) scale(0.1 -0.1)">
       <defs>
        <path id="LiberationSans-34" d="M 2753 997 
L 2753 0 
L 2222 0 
L 2222 997 
L 147 997 
L 147 1434 
L 2163 4403 
L 2753 4403 
L 2753 1441 
L 3372 1441 
L 3372 997 
L 2753 997 
z
M 2222 3769 
Q 2216 3750 2134 3603 
Q 2053 3456 2013 3397 
L 884 1734 
L 716 1503 
L 666 1441 
L 2222 1441 
L 2222 3769 
z
" transform="scale(0.015625)"/>
       </defs>
       <use xlink:href="#LiberationSans-30"/>
       <use xlink:href="#LiberationSans-2e" transform="translate(55.615234 0)"/>
       <use xlink:href="#LiberationSans-34" transform="translate(83.398438 0)"/>
      </g>
     </g>
    </g>
    <g id="ytick_4">
     <g id="line2d_7">
      <path d="M 42.33 143.984 
L 745.2 143.984 
" clip-path="url(#p13f7ac9177)" style="fill: none; stroke: #cccccc; stroke-width: 0.8; stroke-linecap: round"/>
     </g>
     <g id="line2d_8"/>
     <g id="text_5">
      <!-- 0.6 -->
      <g style="fill: #262626" transform="translate(24.93 147.607437) scale(0.1 -0.1)">
       <defs>
        <path id="LiberationSans-36" d="M 3278 1441 
Q 3278 744 2900 340 
Q 2522 -63 1856 -63 
Q 1113 -63 719 490 
Q 325 1044 325 2100 
Q 325 3244 734 3856 
Q 1144 4469 1900 4469 
Q 2897 4469 3156 3572 
L 2619 3475 
Q 2453 4013 1894 4013 
Q 1413 4013 1148 3564 
Q 884 3116 884 2266 
Q 1038 2550 1316 2698 
Q 1594 2847 1953 2847 
Q 2563 2847 2920 2465 
Q 3278 2084 3278 1441 
z
M 2706 1416 
Q 2706 1894 2472 2153 
Q 2238 2413 1819 2413 
Q 1425 2413 1183 2183 
Q 941 1953 941 1550 
Q 941 1041 1192 716 
Q 1444 391 1838 391 
Q 2244 391 2475 664 
Q 2706 938 2706 1416 
z
" transform="scale(0.015625)"/>
       </defs>
       <use xlink:href="#LiberationSans-30"/>
       <use xlink:href="#LiberationSans-2e" transform="translate(55.615234 0)"/>
       <use xlink:href="#LiberationSans-36" transform="translate(83.398438 0)"/>
      </g>
     </g>
    </g>
    <g id="ytick_5">
     <g id="line2d_9">
      <path d="M 42.33 85.072 
L 745.2 85.072 
" clip-path="url(#p13f7ac9177)" style="fill: none; stroke: #cccccc; stroke-width: 0.8; stroke-linecap: round"/>
     </g>
     <g id="line2d_10"/>
     <g id="text_6">
      <!-- 0.8 -->
      <g style="fill: #262626" transform="translate(24.93 88.695437) scale(0.1 -0.1)">
       <defs>
        <path id="LiberationSans-38" d="M 3281 1228 
Q 3281 619 2893 278 
Q 2506 -63 1781 -63 
Q 1075 -63 676 271 
Q 278 606 278 1222 
Q 278 1653 525 1947 
Q 772 2241 1156 2303 
L 1156 2316 
Q 797 2400 589 2681 
Q 381 2963 381 3341 
Q 381 3844 757 4156 
Q 1134 4469 1769 4469 
Q 2419 4469 2795 4162 
Q 3172 3856 3172 3334 
Q 3172 2956 2962 2675 
Q 2753 2394 2391 2322 
L 2391 2309 
Q 2813 2241 3047 1952 
Q 3281 1663 3281 1228 
z
M 2588 3303 
Q 2588 4050 1769 4050 
Q 1372 4050 1164 3862 
Q 956 3675 956 3303 
Q 956 2925 1170 2726 
Q 1384 2528 1775 2528 
Q 2172 2528 2380 2711 
Q 2588 2894 2588 3303 
z
M 2697 1281 
Q 2697 1691 2453 1898 
Q 2209 2106 1769 2106 
Q 1341 2106 1100 1882 
Q 859 1659 859 1269 
Q 859 359 1788 359 
Q 2247 359 2472 579 
Q 2697 800 2697 1281 
z
" transform="scale(0.015625)"/>
       </defs>
       <use xlink:href="#LiberationSans-30"/>
       <use xlink:href="#LiberationSans-2e" transform="translate(55.615234 0)"/>
       <use xlink:href="#LiberationSans-38" transform="translate(83.398438 0)"/>
      </g>
     </g>
    </g>
    <g id="ytick_6">
     <g id="line2d_11">
      <path d="M 42.33 26.16 
L 745.2 26.16 
" clip-path="url(#p13f7ac9177)" style="fill: none; stroke: #cccccc; stroke-width: 0.8; stroke-linecap: round"/>
     </g>
     <g id="line2d_12"/>
     <g id="text_7">
      <!-- 1.0 -->
      <g style="fill: #262626" transform="translate(24.93 29.783437) scale(0.1 -0.1)">
       <defs>
        <path id="LiberationSans-31" d="M 488 0 
L 488 478 
L 1609 478 
L 1609 3866 
L 616 3156 
L 616 3688 
L 1656 4403 
L 2175 4403 
L 2175 478 
L 3247 478 
L 3247 0 
L 488 0 
z
" transform="scale(0.015625)"/>
       </defs>
       <use xlink:href="#LiberationSans-31"/>
       <use xlink:href="#LiberationSans-2e" transform="translate(55.615234 0)"/>
       <use xlink:href="#LiberationSans-30" transform="translate(83.398438 0)"/>
      </g>
     </g>
    </g>
    <g id="text_8">
     <!-- MAE -->
     <g style="fill: #262626" transform="translate(18.855 184.275156) rotate(-90) scale(0.1 -0.1)">
      <defs>
       <path id="LiberationSans-4d" d="M 4269 0 
L 4269 2938 
Q 4269 3425 4297 3875 
Q 4144 3316 4022 3000 
L 2884 0 
L 2466 0 
L 1313 3000 
L 1138 3531 
L 1034 3875 
L 1044 3528 
L 1056 2938 
L 1056 0 
L 525 0 
L 525 4403 
L 1309 4403 
L 2481 1350 
Q 2544 1166 2601 955 
Q 2659 744 2678 650 
Q 2703 775 2783 1029 
Q 2863 1284 2891 1350 
L 4041 4403 
L 4806 4403 
L 4806 0 
L 4269 0 
z
" transform="scale(0.015625)"/>
       <path id="LiberationSans-41" d="M 3647 0 
L 3144 1288 
L 1138 1288 
L 631 0 
L 13 0 
L 1809 4403 
L 2488 4403 
L 4256 0 
L 3647 0 
z
M 2141 3953 
L 2113 3866 
Q 2034 3606 1881 3200 
L 1319 1753 
L 2966 1753 
L 2400 3206 
Q 2313 3422 2225 3694 
L 2141 3953 
z
" transform="scale(0.015625)"/>
       <path id="LiberationSans-45" d="M 525 0 
L 525 4403 
L 3866 4403 
L 3866 3916 
L 1122 3916 
L 1122 2503 
L 3678 2503 
L 3678 2022 
L 1122 2022 
L 1122 488 
L 3994 488 
L 3994 0 
L 525 0 
z
" transform="scale(0.015625)"/>
      </defs>
      <use xlink:href="#LiberationSans-4d"/>
      <use xlink:href="#LiberationSans-41" transform="translate(83.300781 0)"/>
      <use xlink:href="#LiberationSans-45" transform="translate(150 0)"/>
     </g>
    </g>
   </g>
   <g id="line2d_13">
    <path d="M 42.33 274.798096 
L 745.2 274.798096 
" clip-path="url(#p13f7ac9177)" style="fill: none; stroke-dasharray: 4.44,1.92; stroke-dashoffset: 0; stroke: #1f77b4; stroke-opacity: 0.85; stroke-width: 1.2"/>
   </g>
   <g id="line2d_14">
    <path d="M 42.33 270.821536 
L 745.2 270.821536 
" clip-path="url(#p13f7ac9177)" style="fill: none; stroke-dasharray: 4.44,1.92; stroke-dashoffset: 0; stroke: #1f77b4; stroke-opacity: 0.85; stroke-width: 1.2"/>
   </g>
   <g id="line2d_15">
    <path d="M 42.33 270.733168 
L 745.2 270.733168 
" clip-path="url(#p13f7ac9177)" style="fill: none; stroke-dasharray: 4.44,1.92; stroke-dashoffset: 0; stroke: #1f77b4; stroke-opacity: 0.85; stroke-width: 1.2"/>
   </g>
   <g id="line2d_16">
    <path d="M 42.33 265.902384 
L 745.2 265.902384 
" clip-path="url(#p13f7ac9177)" style="fill: none; stroke-dasharray: 4.44,1.92; stroke-dashoffset: 0; stroke: #1f77b4; stroke-opacity: 0.85; stroke-width: 1.2"/>
   </g>
   <g id="line2d_17">
    <path d="M 42.33 263.752096 
L 745.2 263.752096 
" clip-path="url(#p13f7ac9177)" style="fill: none; stroke-dasharray: 4.44,1.92; stroke-dashoffset: 0; stroke: #1f77b4; stroke-opacity: 0.85; stroke-width: 1.2"/>
   </g>
   <g id="patch_3">
    <path d="M 42.33 320.72 
L 42.33 26.16 
" style="fill: none; stroke: #cccccc; stroke-linejoin: miter; stroke-linecap: square"/>
   </g>
   <g id="patch_4">
    <path d="M 745.2 320.72 
L 745.2 26.16 
" style="fill: none; stroke: #cccccc; stroke-linejoin: miter; stroke-linecap: square"/>
   </g>
   <g id="patch_5">
    <path d="M 42.33 320.72 
L 745.2 320.72 
" style="fill: none; stroke: #cccccc; stroke-linejoin: miter; stroke-linecap: square"/>
   </g>
   <g id="patch_6">
    <path d="M 42.33 26.16 
L 745.2 26.16 
" style="fill: none; stroke: #cccccc; stroke-linejoin: miter; stroke-linecap: square"/>
   </g>
   <g id="text_9">
    <!-- No numeric metric found yet -->
    <g style="fill: #262626" transform="translate(331.244687 176.025937) scale(0.1 -0.1)">
     <defs>
      <path id="LiberationSans-4e" d="M 3381 0 
L 1025 3750 
L 1041 3447 
L 1056 2925 
L 1056 0 
L 525 0 
L 525 4403 
L 1219 4403 
L 3600 628 
Q 3563 1241 3563 1516 
L 3563 4403 
L 4100 4403 
L 4100 0 
L 3381 0 
z
" transform="scale(0.015625)"/>
      <path id="LiberationSans-6f" d="M 3291 1694 
Q 3291 806 2900 371 
Q 2509 -63 1766 -63 
Q 1025 -63 647 389 
Q 269 841 269 1694 
Q 269 3444 1784 3444 
Q 2559 3444 2925 3017 
Q 3291 2591 3291 1694 
z
M 2700 1694 
Q 2700 2394 2492 2711 
Q 2284 3028 1794 3028 
Q 1300 3028 1079 2704 
Q 859 2381 859 1694 
Q 859 1025 1076 689 
Q 1294 353 1759 353 
Q 2266 353 2483 678 
Q 2700 1003 2700 1694 
z
" transform="scale(0.015625)"/>
      <path id="LiberationSans-6d" d="M 2400 0 
L 2400 2144 
Q 2400 2634 2265 2821 
Q 2131 3009 1781 3009 
Q 1422 3009 1212 2734 
Q 1003 2459 1003 1959 
L 1003 0 
L 444 0 
L 444 2659 
Q 444 3250 425 3381 
L 956 3381 
Q 959 3366 962 3297 
Q 966 3228 970 3139 
Q 975 3050 981 2803 
L 991 2803 
Q 1172 3163 1406 3303 
Q 1641 3444 1978 3444 
Q 2363 3444 2586 3291 
Q 2809 3138 2897 2803 
L 2906 2803 
Q 3081 3144 3329 3294 
Q 3578 3444 3931 3444 
Q 4444 3444 4676 3166 
Q 4909 2888 4909 2253 
L 4909 0 
L 4353 0 
L 4353 2144 
Q 4353 2634 4218 2821 
Q 4084 3009 3734 3009 
Q 3366 3009 3161 2736 
Q 2956 2463 2956 1959 
L 2956 0 
L 2400 0 
z
" transform="scale(0.015625)"/>
      <path id="LiberationSans-72" d="M 444 0 
L 444 2594 
Q 444 2950 425 3381 
L 956 3381 
Q 981 2806 981 2691 
L 994 2691 
Q 1128 3125 1303 3284 
Q 1478 3444 1797 3444 
Q 1909 3444 2025 3413 
L 2025 2897 
Q 1913 2928 1725 2928 
Q 1375 2928 1190 2626 
Q 1006 2325 1006 1763 
L 1006 0 
L 444 0 
z
" transform="scale(0.015625)"/>
      <path id="LiberationSans-69" d="M 428 4100 
L 428 4638 
L 991 4638 
L 991 4100 
L 428 4100 
z
M 428 0 
L 428 3381 
L 991 3381 
L 991 0 
L 428 0 
z
" transform="scale(0.015625)"/>
      <path id="LiberationSans-63" d="M 859 1706 
Q 859 1031 1071 706 
Q 1284 381 1713 381 
Q 2013 381 2214 543 
Q 2416 706 2463 1044 
L 3031 1006 
Q 2966 519 2616 228 
Q 2266 -63 1728 -63 
Q 1019 -63 645 385 
Q 272 834 272 1694 
Q 272 2547 647 2995 
Q 1022 3444 1722 3444 
Q 2241 3444 2583 3175 
Q 2925 2906 3013 2434 
L 2434 2391 
Q 2391 2672 2212 2837 
Q 2034 3003 1706 3003 
Q 1259 3003 1059 2706 
Q 859 2409 859 1706 
z
" transform="scale(0.015625)"/>
      <path id="LiberationSans-66" d="M 1128 2972 
L 1128 0 
L 566 0 
L 566 2972 
L 91 2972 
L 91 3381 
L 566 3381 
L 566 3763 
Q 566 4225 769 4428 
Q 972 4631 1391 4631 
Q 1625 4631 1788 4594 
L 1788 4166 
Q 1647 4191 1538 4191 
Q 1322 4191 1225 4081 
Q 1128 3972 1128 3684 
L 1128 3381 
L 1788 3381 
L 1788 2972 
L 1128 2972 
z
" transform="scale(0.015625)"/>
      <path id="LiberationSans-79" d="M 597 -1328 
Q 366 -1328 209 -1294 
L 209 -872 
Q 328 -891 472 -891 
Q 997 -891 1303 -119 
L 1356 16 
L 16 3381 
L 616 3381 
L 1328 1513 
Q 1344 1469 1366 1408 
Q 1388 1347 1506 1000 
Q 1625 653 1634 613 
L 1853 1228 
L 2594 3381 
L 3188 3381 
L 1888 0 
Q 1678 -541 1497 -805 
Q 1316 -1069 1095 -1198 
Q 875 -1328 597 -1328 
z
" transform="scale(0.015625)"/>
     </defs>
     <use xlink:href="#LiberationSans-4e"/>
     <use xlink:href="#LiberationSans-6f" transform="translate(72.216797 0)"/>
     <use xlink:href="#LiberationSans-20" transform="translate(127.832031 0)"/>
     <use xlink:href="#LiberationSans-6e" transform="translate(155.615234 0)"/>
     <use xlink:href="#LiberationSans-75" transform="translate(211.230469 0)"/>
     <use xlink:href="#LiberationSans-6d" transform="translate(266.845703 0)"/>
     <use xlink:href="#LiberationSans-65" transform="translate(350.146484 0)"/>
     <use xlink:href="#LiberationSans-72" transform="translate(405.761719 0)"/>
     <use xlink:href="#LiberationSans-69" transform="translate(439.0625 0)"/>
     <use xlink:href="#LiberationSans-63" transform="translate(461.279297 0)"/>
     <use xlink:href="#LiberationSans-20" transform="translate(511.279297 0)"/>
     <use xlink:href="#LiberationSans-6d" transform="translate(539.0625 0)"/>
     <use xlink:href="#LiberationSans-65" transform="translate(622.363281 0)"/>
     <use xlink:href="#LiberationSans-74" transform="translate(677.978516 0)"/>
     <use xlink:href="#LiberationSans-72" transform="translate(705.761719 0)"/>
     <use xlink:href="#LiberationSans-69" transform="translate(739.0625 0)"/>
     <use xlink:href="#LiberationSans-63" transform="translate(761.279297 0)"/>
     <use xlink:href="#LiberationSans-20" transform="translate(811.279297 0)"/>
     <use xlink:href="#LiberationSans-66" transform="translate(839.0625 0)"/>
     <use xlink:href="#LiberationSans-6f" transform="translate(866.845703 0)"/>
     <use xlink:href="#LiberationSans-75" transform="translate(922.460938 0)"/>
     <use xlink:href="#LiberationSans-6e" transform="translate(978.076172 0)"/>
     <use xlink:href="#LiberationSans-64" transform="translate(1033.691406 0)"/>
     <use xlink:href="#LiberationSans-20" transform="translate(1089.306641 0)"/>
     <use xlink:href="#LiberationSans-79" transform="translate(1117.089844 0)"/>
     <use xlink:href="#LiberationSans-65" transform="translate(1167.089844 0)"/>
     <use xlink:href="#LiberationSans-74" transform="translate(1222.705078 0)"/>
    </g>
   </g>
   <g id="text_10">
    <!-- Progress — matbench_mp_gap (MAE lower is better) -->
    <g style="fill: #262626" transform="translate(239.516953 20.16) scale(0.13 -0.13)">
     <defs>
      <path id="LiberationSans-50" d="M 3931 3078 
Q 3931 2453 3523 2084 
Q 3116 1716 2416 1716 
L 1122 1716 
L 1122 0 
L 525 0 
L 525 4403 
L 2378 4403 
Q 3119 4403 3525 4056 
Q 3931 3709 3931 3078 
z
M 3331 3072 
Q 3331 3925 2306 3925 
L 1122 3925 
L 1122 2188 
L 2331 2188 
Q 3331 2188 3331 3072 
z
" transform="scale(0.015625)"/>
      <path id="LiberationSans-67" d="M 1713 -1328 
Q 1159 -1328 831 -1111 
Q 503 -894 409 -494 
L 975 -413 
Q 1031 -647 1223 -773 
Q 1416 -900 1728 -900 
Q 2569 -900 2569 84 
L 2569 628 
L 2563 628 
Q 2403 303 2125 139 
Q 1847 -25 1475 -25 
Q 853 -25 561 387 
Q 269 800 269 1684 
Q 269 2581 583 3007 
Q 897 3434 1538 3434 
Q 1897 3434 2161 3270 
Q 2425 3106 2569 2803 
L 2575 2803 
Q 2575 2897 2587 3128 
Q 2600 3359 2613 3381 
L 3147 3381 
Q 3128 3213 3128 2681 
L 3128 97 
Q 3128 -1328 1713 -1328 
z
M 2569 1691 
Q 2569 2103 2456 2401 
Q 2344 2700 2139 2858 
Q 1934 3016 1675 3016 
Q 1244 3016 1047 2703 
Q 850 2391 850 1691 
Q 850 997 1034 694 
Q 1219 391 1666 391 
Q 1931 391 2137 547 
Q 2344 703 2456 995 
Q 2569 1288 2569 1691 
z
" transform="scale(0.015625)"/>
      <path id="LiberationSans-73" d="M 2969 934 
Q 2969 456 2608 196 
Q 2247 -63 1597 -63 
Q 966 -63 623 145 
Q 281 353 178 794 
L 675 891 
Q 747 619 972 492 
Q 1197 366 1597 366 
Q 2025 366 2223 497 
Q 2422 628 2422 891 
Q 2422 1091 2284 1216 
Q 2147 1341 1841 1422 
L 1438 1528 
Q 953 1653 748 1773 
Q 544 1894 428 2066 
Q 313 2238 313 2488 
Q 313 2950 642 3192 
Q 972 3434 1603 3434 
Q 2163 3434 2492 3237 
Q 2822 3041 2909 2606 
L 2403 2544 
Q 2356 2769 2151 2889 
Q 1947 3009 1603 3009 
Q 1222 3009 1040 2893 
Q 859 2778 859 2544 
Q 859 2400 934 2306 
Q 1009 2213 1156 2147 
Q 1303 2081 1775 1966 
Q 2222 1853 2419 1758 
Q 2616 1663 2730 1547 
Q 2844 1431 2906 1279 
Q 2969 1128 2969 934 
z
" transform="scale(0.015625)"/>
      <path id="LiberationSans-2014" d="M 0 1409 
L 0 1838 
L 6400 1838 
L 6400 1409 
L 0 1409 
z
" transform="scale(0.015625)"/>
      <path id="LiberationSans-62" d="M 3291 1706 
Q 3291 -63 2047 -63 
Q 1663 -63 1408 76 
Q 1153 216 994 525 
L 988 525 
Q 988 428 975 229 
Q 963 31 956 0 
L 413 0 
Q 431 169 431 697 
L 431 4638 
L 994 4638 
L 994 3316 
Q 994 3113 981 2838 
L 994 2838 
Q 1150 3163 1408 3303 
Q 1666 3444 2047 3444 
Q 2688 3444 2989 3012 
Q 3291 2581 3291 1706 
z
M 2700 1688 
Q 2700 2397 2512 2703 
Q 2325 3009 1903 3009 
Q 1428 3009 1211 2684 
Q 994 2359 994 1653 
Q 994 988 1206 670 
Q 1419 353 1897 353 
Q 2322 353 2511 667 
Q 2700 981 2700 1688 
z
" transform="scale(0.015625)"/>
      <path id="LiberationSans-68" d="M 991 2803 
Q 1172 3134 1426 3289 
Q 1681 3444 2072 3444 
Q 2622 3444 2883 3170 
Q 3144 2897 3144 2253 
L 3144 0 
L 2578 0 
L 2578 2144 
Q 2578 2500 2512 2673 
Q 2447 2847 2297 2928 
Q 2147 3009 1881 3009 
Q 1484 3009 1245 2734 
Q 1006 2459 1006 1994 
L 1006 0 
L 444 0 
L 444 4638 
L 1006 4638 
L 1006 3431 
Q 1006 3241 995 3037 
Q 984 2834 981 2803 
L 991 2803 
z
" transform="scale(0.015625)"/>
      <path id="LiberationSans-5f" d="M -97 -1272 
L -97 -866 
L 3631 -866 
L 3631 -1272 
L -97 -1272 
z
" transform="scale(0.015625)"/>
      <path id="LiberationSans-70" d="M 3291 1706 
Q 3291 -63 2047 -63 
Q 1266 -63 997 525 
L 981 525 
Q 994 500 994 -6 
L 994 -1328 
L 431 -1328 
L 431 2691 
Q 431 3213 413 3381 
L 956 3381 
Q 959 3369 965 3292 
Q 972 3216 980 3056 
Q 988 2897 988 2838 
L 1000 2838 
Q 1150 3150 1397 3295 
Q 1644 3441 2047 3441 
Q 2672 3441 2981 3022 
Q 3291 2603 3291 1706 
z
M 2700 1694 
Q 2700 2400 2509 2703 
Q 2319 3006 1903 3006 
Q 1569 3006 1380 2865 
Q 1191 2725 1092 2426 
Q 994 2128 994 1650 
Q 994 984 1206 668 
Q 1419 353 1897 353 
Q 2316 353 2508 661 
Q 2700 969 2700 1694 
z
" transform="scale(0.015625)"/>
      <path id="LiberationSans-28" d="M 397 1663 
Q 397 2566 680 3284 
Q 963 4003 1550 4638 
L 2094 4638 
Q 1509 3988 1236 3256 
Q 963 2525 963 1656 
Q 963 791 1233 62 
Q 1503 -666 2094 -1325 
L 1550 -1325 
Q 959 -688 678 32 
Q 397 753 397 1650 
L 397 1663 
z
" transform="scale(0.015625)"/>
      <path id="LiberationSans-6c" d="M 431 0 
L 431 4638 
L 994 4638 
L 994 0 
L 431 0 
z
" transform="scale(0.015625)"/>
      <path id="LiberationSans-77" d="M 3669 0 
L 3016 0 
L 2425 2391 
L 2313 2919 
Q 2284 2778 2225 2514 
Q 2166 2250 1588 0 
L 938 0 
L -9 3381 
L 547 3381 
L 1119 1084 
Q 1141 1009 1253 466 
L 1306 697 
L 2013 3381 
L 2616 3381 
L 3206 1059 
L 3350 466 
L 3447 900 
L 4088 3381 
L 4638 3381 
L 3669 0 
z
" transform="scale(0.015625)"/>
      <path id="LiberationSans-29" d="M 1734 1650 
Q 1734 747 1451 28 
Q 1169 -691 581 -1325 
L 38 -1325 
Q 625 -669 897 57 
Q 1169 784 1169 1656 
Q 1169 2528 895 3256 
Q 622 3984 38 4638 
L 581 4638 
Q 1172 4000 1453 3279 
Q 1734 2559 1734 1663 
L 1734 1650 
z
" transform="scale(0.015625)"/>
     </defs>
     <use xlink:href="#LiberationSans-50"/>
     <use xlink:href="#LiberationSans-72" transform="translate(66.699219 0)"/>
     <use xlink:href="#LiberationSans-6f" transform="translate(100 0)"/>
     <use xlink:href="#LiberationSans-67" transform="translate(155.615234 0)"/>
     <use xlink:href="#LiberationSans-72" transform="translate(211.230469 0)"/>
     <use xlink:href="#LiberationSans-65" transform="translate(244.53125 0)"/>
     <use xlink:href="#LiberationSans-73" transform="translate(300.146484 0)"/>
     <use xlink:href="#LiberationSans-73" transform="translate(350.146484 0)"/>
     <use xlink:href="#LiberationSans-20" transform="translate(400.146484 0)"/>
     <use xlink:href="#LiberationSans-2014" transform="translate(427.929688 0)"/>
     <use xlink:href="#LiberationSans-20" transform="translate(527.929688 0)"/>
     <use xlink:href="#LiberationSans-6d" transform="translate(555.712891 0)"/>
     <use xlink:href="#LiberationSans-61" transform="translate(639.013672 0)"/>
     <use xlink:href="#LiberationSans-74" transform="translate(694.628906 0)"/>
     <use xlink:href="#LiberationSans-62" transform="translate(722.412109 0)"/>
     <use xlink:href="#LiberationSans-65" transform="translate(778.027344 0)"/>
     <use xlink:href="#LiberationSans-6e" transform="translate(833.642578 0)"/>
     <use xlink:href="#LiberationSans-63" transform="translate(889.257812 0)"/>
     <use xlink:href="#LiberationSans-68" transform="translate(939.257812 0)"/>
     <use xlink:href="#LiberationSans-5f" transform="translate(994.873047 0)"/>
     <use xlink:href="#LiberationSans-6d" transform="translate(1050.488281 0)"/>
     <use xlink:href="#LiberationSans-70" transform="translate(1133.789062 0)"/>
     <use xlink:href="#LiberationSans-5f" transform="translate(1189.404297 0)"/>
     <use xlink:href="#LiberationSans-67" transform="translate(1245.019531 0)"/>
     <use xlink:href="#LiberationSans-61" transform="translate(1300.634766 0)"/>
     <use xlink:href="#LiberationSans-70" transform="translate(1356.25 0)"/>
     <use xlink:href="#LiberationSans-20" transform="translate(1411.865234 0)"/>
     <use xlink:href="#LiberationSans-28" transform="translate(1439.648438 0)"/>
     <use xlink:href="#LiberationSans-4d" transform="translate(1472.949219 0)"/>
     <use xlink:href="#LiberationSans-41" transform="translate(1556.25 0)"/>
     <use xlink:href="#LiberationSans-45" transform="translate(1622.949219 0)"/>
     <use xlink:href="#LiberationSans-20" transform="translate(1689.648438 0)"/>
     <use xlink:href="#LiberationSans-6c" transform="translate(1717.431641 0)"/>
     <use xlink:href="#LiberationSans-6f" transform="translate(1739.648438 0)"/>
     <use xlink:href="#LiberationSans-77" transform="translate(1795.263672 0)"/>
     <use xlink:href="#LiberationSans-65" transform="translate(1867.480469 0)"/>
     <use xlink:href="#LiberationSans-72" transform="translate(1923.095703 0)"/>
     <use xlink:href="#LiberationSans-20" transform="translate(1956.396484 0)"/>
     <use xlink:href="#LiberationSans-69" transform="translate(1984.179688 0)"/>
     <use xlink:href="#LiberationSans-73" transform="translate(2006.396484 0)"/>
     <use xlink:href="#LiberationSans-20" transform="translate(2056.396484 0)"/>
     <use xlink:href="#LiberationSans-62" transform="translate(2084.179688 0)"/>
     <use xlink:href="#LiberationSans-65" transform="translate(2139.794922 0)"/>
     <use xlink:href="#LiberationSans-74" transform="translate(2195.410156 0)"/>
     <use xlink:href="#LiberationSans-74" transform="translate(2223.193359 0)"/>
     <use xlink:href="#LiberationSans-65" transform="translate(2250.976562 0)"/>
     <use xlink:href="#LiberationSans-72" transform="translate(2306.591797 0)"/>
     <use xlink:href="#LiberationSans-29" transform="translate(2339.892578 0)"/>
    </g>
   </g>
   <g id="legend_1">
    <g id="line2d_18">
     <path d="M 485.70625 36.3575 
L 493.70625 36.3575 
L 501.70625 36.3575 
" style="fill: none; stroke-dasharray: 4.44,1.92; stroke-dashoffset: 0; stroke: #1f77b4; stroke-opacity: 0.85; stroke-width: 1.2"/>
    </g>
    <g id="text_11">
     <!-- Top-1 coGN: 0.1559 -->
     <g style="fill: #262626" transform="translate(508.10625 39.1575) scale(0.08 -0.08)">
      <defs>
       <path id="LiberationSans-54" d="M 2250 3916 
L 2250 0 
L 1656 0 
L 1656 3916 
L 144 3916 
L 144 4403 
L 3763 4403 
L 3763 3916 
L 2250 3916 
z
" transform="scale(0.015625)"/>
       <path id="LiberationSans-2d" d="M 284 1450 
L 284 1950 
L 1847 1950 
L 1847 1450 
L 284 1450 
z
" transform="scale(0.015625)"/>
       <path id="LiberationSans-47" d="M 322 2222 
Q 322 3294 897 3881 
Q 1472 4469 2513 4469 
Q 3244 4469 3700 4222 
Q 4156 3975 4403 3431 
L 3834 3263 
Q 3647 3638 3317 3809 
Q 2988 3981 2497 3981 
Q 1734 3981 1331 3520 
Q 928 3059 928 2222 
Q 928 1388 1356 905 
Q 1784 422 2541 422 
Q 2972 422 3345 553 
Q 3719 684 3950 909 
L 3950 1703 
L 2634 1703 
L 2634 2203 
L 4500 2203 
L 4500 684 
Q 4150 328 3642 132 
Q 3134 -63 2541 -63 
Q 1850 -63 1350 212 
Q 850 488 586 1005 
Q 322 1522 322 2222 
z
" transform="scale(0.015625)"/>
       <path id="LiberationSans-3a" d="M 584 2734 
L 584 3381 
L 1194 3381 
L 1194 2734 
L 584 2734 
z
M 584 0 
L 584 647 
L 1194 647 
L 1194 0 
L 584 0 
z
" transform="scale(0.015625)"/>
       <path id="LiberationSans-35" d="M 3291 1434 
Q 3291 738 2877 337 
Q 2463 -63 1728 -63 
Q 1113 -63 734 206 
Q 356 475 256 984 
L 825 1050 
Q 1003 397 1741 397 
Q 2194 397 2450 670 
Q 2706 944 2706 1422 
Q 2706 1838 2448 2094 
Q 2191 2350 1753 2350 
Q 1525 2350 1328 2278 
Q 1131 2206 934 2034 
L 384 2034 
L 531 4403 
L 3034 4403 
L 3034 3925 
L 1044 3925 
L 959 2528 
Q 1325 2809 1869 2809 
Q 2519 2809 2905 2428 
Q 3291 2047 3291 1434 
z
" transform="scale(0.015625)"/>
       <path id="LiberationSans-39" d="M 3256 2291 
Q 3256 1156 2842 546 
Q 2428 -63 1663 -63 
Q 1147 -63 836 154 
Q 525 372 391 856 
L 928 941 
Q 1097 391 1672 391 
Q 2156 391 2422 841 
Q 2688 1291 2700 2125 
Q 2575 1844 2272 1673 
Q 1969 1503 1606 1503 
Q 1013 1503 656 1909 
Q 300 2316 300 2988 
Q 300 3678 687 4073 
Q 1075 4469 1766 4469 
Q 2500 4469 2878 3925 
Q 3256 3381 3256 2291 
z
M 2644 2834 
Q 2644 3366 2400 3689 
Q 2156 4013 1747 4013 
Q 1341 4013 1106 3736 
Q 872 3459 872 2988 
Q 872 2506 1106 2226 
Q 1341 1947 1741 1947 
Q 1984 1947 2193 2058 
Q 2403 2169 2523 2372 
Q 2644 2575 2644 2834 
z
" transform="scale(0.015625)"/>
      </defs>
      <use xlink:href="#LiberationSans-54"/>
      <use xlink:href="#LiberationSans-6f" transform="translate(49.958984 0)"/>
      <use xlink:href="#LiberationSans-70" transform="translate(105.574219 0)"/>
      <use xlink:href="#LiberationSans-2d" transform="translate(161.189453 0)"/>
      <use xlink:href="#LiberationSans-31" transform="translate(194.490234 0)"/>
      <use xlink:href="#LiberationSans-20" transform="translate(250.105469 0)"/>
      <use xlink:href="#LiberationSans-63" transform="translate(277.888672 0)"/>
      <use xlink:href="#LiberationSans-6f" transform="translate(327.888672 0)"/>
      <use xlink:href="#LiberationSans-47" transform="translate(383.503906 0)"/>
      <use xlink:href="#LiberationSans-4e" transform="translate(461.287109 0)"/>
      <use xlink:href="#LiberationSans-3a" transform="translate(533.503906 0)"/>
      <use xlink:href="#LiberationSans-20" transform="translate(561.287109 0)"/>
      <use xlink:href="#LiberationSans-30" transform="translate(589.070312 0)"/>
      <use xlink:href="#LiberationSans-2e" transform="translate(644.685547 0)"/>
      <use xlink:href="#LiberationSans-31" transform="translate(672.46875 0)"/>
      <use xlink:href="#LiberationSans-35" transform="translate(728.083984 0)"/>
      <use xlink:href="#LiberationSans-35" transform="translate(783.699219 0)"/>
      <use xlink:href="#LiberationSans-39" transform="translate(839.314453 0)"/>
     </g>
    </g>
    <g id="line2d_19">
     <path d="M 485.70625 47.815 
L 493.70625 47.815 
L 501.70625 47.815 
" style="fill: none; stroke-dasharray: 4.44,1.92; stroke-dashoffset: 0; stroke: #1f77b4; stroke-opacity: 0.85; stroke-width: 1.2"/>
    </g>
    <g id="text_12">
     <!-- Top-2 DeeperGATGNN: 0.1694 -->
     <g style="fill: #262626" transform="translate(508.10625 50.615) scale(0.08 -0.08)">
      <defs>
       <path id="LiberationSans-44" d="M 4316 2247 
Q 4316 1566 4050 1055 
Q 3784 544 3296 272 
Q 2809 0 2172 0 
L 525 0 
L 525 4403 
L 1981 4403 
Q 3100 4403 3708 3842 
Q 4316 3281 4316 2247 
z
M 3716 2247 
Q 3716 3066 3267 3495 
Q 2819 3925 1969 3925 
L 1122 3925 
L 1122 478 
L 2103 478 
Q 2588 478 2955 690 
Q 3322 903 3519 1303 
Q 3716 1703 3716 2247 
z
" transform="scale(0.015625)"/>
      </defs>
      <use xlink:href="#LiberationSans-54"/>
      <use xlink:href="#LiberationSans-6f" transform="translate(49.958984 0)"/>
      <use xlink:href="#LiberationSans-70" transform="translate(105.574219 0)"/>
      <use xlink:href="#LiberationSans-2d" transform="translate(161.189453 0)"/>
      <use xlink:href="#LiberationSans-32" transform="translate(194.490234 0)"/>
      <use xlink:href="#LiberationSans-20" transform="translate(250.105469 0)"/>
      <use xlink:href="#LiberationSans-44" transform="translate(277.888672 0)"/>
      <use xlink:href="#LiberationSans-65" transform="translate(350.105469 0)"/>
      <use xlink:href="#LiberationSans-65" transform="translate(405.720703 0)"/>
      <use xlink:href="#LiberationSans-70" transform="translate(461.335938 0)"/>
      <use xlink:href="#LiberationSans-65" transform="translate(516.951172 0)"/>
      <use xlink:href="#LiberationSans-72" transform="translate(572.566406 0)"/>
      <use xlink:href="#LiberationSans-47" transform="translate(605.867188 0)"/>
      <use xlink:href="#LiberationSans-41" transform="translate(683.650391 0)"/>
      <use xlink:href="#LiberationSans-54" transform="translate(742.974609 0)"/>
      <use xlink:href="#LiberationSans-47" transform="translate(804.058594 0)"/>
      <use xlink:href="#LiberationSans-4e" transform="translate(881.841797 0)"/>
      <use xlink:href="#LiberationSans-4e" transform="translate(954.058594 0)"/>
      <use xlink:href="#LiberationSans-3a" transform="translate(1026.275391 0)"/>
      <use xlink:href="#LiberationSans-20" transform="translate(1054.058594 0)"/>
      <use xlink:href="#LiberationSans-30" transform="translate(1081.841797 0)"/>
      <use xlink:href="#LiberationSans-2e" transform="translate(1137.457031 0)"/>
      <use xlink:href="#LiberationSans-31" transform="translate(1165.240234 0)"/>
      <use xlink:href="#LiberationSans-36" transform="translate(1220.855469 0)"/>
      <use xlink:href="#LiberationSans-39" transform="translate(1276.470703 0)"/>
      <use xlink:href="#LiberationSans-34" transform="translate(1332.085938 0)"/>
     </g>
    </g>
    <g id="line2d_20">
     <path d="M 485.70625 59.2725 
L 493.70625 59.2725 
L 501.70625 59.2725 
" style="fill: none; stroke-dasharray: 4.44,1.92; stroke-dashoffset: 0; stroke: #1f77b4; stroke-opacity: 0.85; stroke-width: 1.2"/>
    </g>
    <g id="text_13">
     <!-- Top-3 coNGN: 0.1697 -->
     <g style="fill: #262626" transform="translate(508.10625 62.0725) scale(0.08 -0.08)">
      <defs>
       <path id="LiberationSans-33" d="M 3278 1216 
Q 3278 606 2890 271 
Q 2503 -63 1784 -63 
Q 1116 -63 717 239 
Q 319 541 244 1131 
L 825 1184 
Q 938 403 1784 403 
Q 2209 403 2451 612 
Q 2694 822 2694 1234 
Q 2694 1594 2417 1795 
Q 2141 1997 1619 1997 
L 1300 1997 
L 1300 2484 
L 1606 2484 
Q 2069 2484 2323 2686 
Q 2578 2888 2578 3244 
Q 2578 3597 2370 3801 
Q 2163 4006 1753 4006 
Q 1381 4006 1151 3815 
Q 922 3625 884 3278 
L 319 3322 
Q 381 3863 767 4166 
Q 1153 4469 1759 4469 
Q 2422 4469 2789 4161 
Q 3156 3853 3156 3303 
Q 3156 2881 2920 2617 
Q 2684 2353 2234 2259 
L 2234 2247 
Q 2728 2194 3003 1916 
Q 3278 1638 3278 1216 
z
" transform="scale(0.015625)"/>
       <path id="LiberationSans-37" d="M 3238 3947 
Q 2563 2916 2284 2331 
Q 2006 1747 1867 1178 
Q 1728 609 1728 0 
L 1141 0 
Q 1141 844 1498 1776 
Q 1856 2709 2694 3925 
L 328 3925 
L 328 4403 
L 3238 4403 
L 3238 3947 
z
" transform="scale(0.015625)"/>
      </defs>
      <use xlink:href="#LiberationSans-54"/>
      <use xlink:href="#LiberationSans-6f" transform="translate(49.958984 0)"/>
      <use xlink:href="#LiberationSans-70" transform="translate(105.574219 0)"/>
      <use xlink:href="#LiberationSans-2d" transform="translate(161.189453 0)"/>
      <use xlink:href="#LiberationSans-33" transform="translate(194.490234 0)"/>
      <use xlink:href="#LiberationSans-20" transform="translate(250.105469 0)"/>
      <use xlink:href="#LiberationSans-63" transform="translate(277.888672 0)"/>
      <use xlink:href="#LiberationSans-6f" transform="translate(327.888672 0)"/>
      <use xlink:href="#LiberationSans-4e" transform="translate(383.503906 0)"/>
      <use xlink:href="#LiberationSans-47" transform="translate(455.720703 0)"/>
      <use xlink:href="#LiberationSans-4e" transform="translate(533.503906 0)"/>
      <use xlink:href="#LiberationSans-3a" transform="translate(605.720703 0)"/>
      <use xlink:href="#LiberationSans-20" transform="translate(633.503906 0)"/>
      <use xlink:href="#LiberationSans-30" transform="translate(661.287109 0)"/>
      <use xlink:href="#LiberationSans-2e" transform="translate(716.902344 0)"/>
      <use xlink:href="#LiberationSans-31" transform="translate(744.685547 0)"/>
      <use xlink:href="#LiberationSans-36" transform="translate(800.300781 0)"/>
      <use xlink:href="#LiberationSans-39" transform="translate(855.916016 0)"/>
      <use xlink:href="#LiberationSans-37" transform="translate(911.53125 0)"/>
     </g>
    </g>
    <g id="line2d_21">
     <path d="M 635.115 36.3575 
L 643.115 36.3575 
L 651.115 36.3575 
" style="fill: none; stroke-dasharray: 4.44,1.92; stroke-dashoffset: 0; stroke: #1f77b4; stroke-opacity: 0.85; stroke-width: 1.2"/>
    </g>
    <g id="text_14">
     <!-- Top-4 ALIGNN: 0.1861 -->
     <g style="fill: #262626" transform="translate(657.515 39.1575) scale(0.08 -0.08)">
      <defs>
       <path id="LiberationSans-4c" d="M 525 0 
L 525 4403 
L 1122 4403 
L 1122 488 
L 3347 488 
L 3347 0 
L 525 0 
z
" transform="scale(0.015625)"/>
       <path id="LiberationSans-49" d="M 591 0 
L 591 4403 
L 1188 4403 
L 1188 0 
L 591 0 
z
" transform="scale(0.015625)"/>
      </defs>
      <use xlink:href="#LiberationSans-54"/>
      <use xlink:href="#LiberationSans-6f" transform="translate(49.958984 0)"/>
      <use xlink:href="#LiberationSans-70" transform="translate(105.574219 0)"/>
      <use xlink:href="#LiberationSans-2d" transform="translate(161.189453 0)"/>
      <use xlink:href="#LiberationSans-34" transform="translate(194.490234 0)"/>
      <use xlink:href="#LiberationSans-20" transform="translate(250.105469 0)"/>
      <use xlink:href="#LiberationSans-41" transform="translate(272.388672 0)"/>
      <use xlink:href="#LiberationSans-4c" transform="translate(339.087891 0)"/>
      <use xlink:href="#LiberationSans-49" transform="translate(394.703125 0)"/>
      <use xlink:href="#LiberationSans-47" transform="translate(422.486328 0)"/>
      <use xlink:href="#LiberationSans-4e" transform="translate(500.269531 0)"/>
      <use xlink:href="#LiberationSans-4e" transform="translate(572.486328 0)"/>
      <use xlink:href="#LiberationSans-3a" transform="translate(644.703125 0)"/>
      <use xlink:href="#LiberationSans-20" transform="translate(672.486328 0)"/>
      <use xlink:href="#LiberationSans-30" transform="translate(700.269531 0)"/>
      <use xlink:href="#LiberationSans-2e" transform="translate(755.884766 0)"/>
      <use xlink:href="#LiberationSans-31" transform="translate(783.667969 0)"/>
      <use xlink:href="#LiberationSans-38" transform="translate(839.283203 0)"/>
      <use xlink:href="#LiberationSans-36" transform="translate(894.898438 0)"/>
      <use xlink:href="#LiberationSans-31" transform="translate(950.513672 0)"/>
     </g>
    </g>
    <g id="line2d_22">
     <path d="M 635.115 47.815 
L 643.115 47.815 
L 651.115 47.815 
" style="fill: none; stroke-dasharray: 4.44,1.92; stroke-dashoffset: 0; stroke: #1f77b4; stroke-opacity: 0.85; stroke-width: 1.2"/>
    </g>
    <g id="text_15">
     <!-- Top-5 MegNet: 0.1934 -->
     <g style="fill: #262626" transform="translate(657.515 50.615) scale(0.08 -0.08)">
      <use xlink:href="#LiberationSans-54"/>
      <use xlink:href="#LiberationSans-6f" transform="translate(49.958984 0)"/>
      <use xlink:href="#LiberationSans-70" transform="translate(105.574219 0)"/>
      <use xlink:href="#LiberationSans-2d" transform="translate(161.189453 0)"/>
      <use xlink:href="#LiberationSans-35" transform="translate(194.490234 0)"/>
      <use xlink:href="#LiberationSans-20" transform="translate(250.105469 0)"/>
      <use xlink:href="#LiberationSans-4d" transform="translate(277.888672 0)"/>
      <use xlink:href="#LiberationSans-65" transform="translate(361.189453 0)"/>
      <use xlink:href="#LiberationSans-67" transform="translate(416.804688 0)"/>
      <use xlink:href="#LiberationSans-4e" transform="translate(472.419922 0)"/>
      <use xlink:href="#LiberationSans-65" transform="translate(544.636719 0)"/>
      <use xlink:href="#LiberationSans-74" transform="translate(600.251953 0)"/>
      <use xlink:href="#LiberationSans-3a" transform="translate(628.035156 0)"/>
      <use xlink:href="#LiberationSans-20" transform="translate(655.818359 0)"/>
      <use xlink:href="#LiberationSans-30" transform="translate(683.601562 0)"/>
      <use xlink:href="#LiberationSans-2e" transform="translate(739.216797 0)"/>
      <use xlink:href="#LiberationSans-31" transform="translate(767 0)"/>
      <use xlink:href="#LiberationSans-39" transform="translate(822.615234 0)"/>
      <use xlink:href="#LiberationSans-33" transform="translate(878.230469 0)"/>
      <use xlink:href="#LiberationSans-34" transform="translate(933.845703 0)"/>
     </g>
    </g>
   </g>
  </g>
 </g>
 <defs>
  <clipPath id="p13f7ac9177">
   <rect x="42.33" y="26.16" width="702.87" height="294.56"/>
  </clipPath>
 </defs>
</svg>
